<?xml version="1.0" standalone="no"?>
<!DOCTYPE svg PUBLIC "-//W3C//DTD SVG 20010904//EN"
 "http://www.w3.org/TR/2001/REC-SVG-20010904/DTD/svg10.dtd">
<svg version="1.0" xmlns="http://www.w3.org/2000/svg"
 width="192.000000pt" height="192.000000pt" viewBox="0 0 192.000000 192.000000"
 preserveAspectRatio="xMidYMid meet">

<g transform="translate(0.000000,192.000000) scale(0.100000,-0.100000)"
fill="#000000" stroke="none">
<path d="M1245 1443 c19 -46 17 -61 -19 -101 -20 -22 -36 -45 -36 -52 0 -10
-3 -10 -15 0 -10 8 -38 11 -83 8 l-68 -3 13 25 c16 31 16 42 1 91 -14 47 -37
51 -76 12 -23 -24 -34 -27 -77 -25 -37 2 -56 -3 -74 -16 -22 -18 -22 -20 -8
-49 9 -16 23 -35 32 -43 14 -11 5 -17 -67 -40 -109 -35 -377 -172 -432 -221
-92 -82 -123 -215 -74 -318 162 -337 1005 -392 1319 -86 126 122 131 267 13
394 -45 49 -54 65 -54 96 0 47 -41 90 -101 105 -44 11 -44 11 -41 52 3 30 -1
48 -18 70 l-22 30 26 27 c25 26 34 51 19 51 -4 0 -24 -16 -44 -36 -35 -34 -37
-35 -44 -15 -6 21 -50 61 -67 61 -6 0 -7 -8 -3 -17z m-226 -79 c1 -33 -30 -71
-48 -59 -20 12 -12 77 11 102 21 22 23 23 29 6 4 -10 8 -32 8 -49z m272 -34
c-7 -34 -16 -72 -20 -84 -8 -19 -10 -16 -21 20 -11 38 -10 44 9 71 12 16 23
39 24 51 1 13 5 18 11 12 5 -5 4 -32 -3 -70z m-374 28 c6 -7 13 -25 17 -40 8
-33 -6 -36 -59 -14 -33 14 -60 47 -48 60 11 11 80 6 90 -6z m443 -27 c5 -11
10 -37 10 -58 0 -36 -2 -38 -30 -38 -34 0 -34 -3 -18 64 12 55 21 62 38 32z
m-195 -61 c10 -16 -85 -168 -122 -196 -41 -31 -128 -71 -196 -91 -71 -21 -447
-31 -447 -13 0 24 71 100 132 141 79 54 186 103 283 130 110 30 338 49 350 29z
m95 -86 c0 -55 -29 -23 -35 39 -2 17 -1 17 16 1 11 -10 19 -27 19 -40z m98 4
c-2 -18 3 -23 36 -30 43 -9 76 -33 76 -54 0 -17 -62 -34 -125 -34 -73 0 -77 5
-58 78 15 58 17 62 45 62 24 0 29 -4 26 -22z m119 -11 c39 -21 43 -32 43 -133
0 -102 -14 -134 -69 -158 l-40 -19 -25 29 c-13 16 -27 46 -30 66 -5 30 -14 42
-46 60 -22 13 -40 25 -40 28 0 3 27 3 61 2 78 -5 120 3 153 29 l26 21 -20 29
c-12 17 -37 33 -61 40 -21 7 -39 18 -39 25 0 15 37 6 87 -19z m-253 -47 c10
-28 16 -53 13 -56 -2 -3 -21 5 -40 16 l-36 21 16 35 c9 19 19 34 23 34 3 0 14
-23 24 -50z m20 -98 c44 -26 80 -51 80 -57 1 -15 -58 -41 -151 -67 -46 -13
-83 -27 -83 -31 0 -10 57 0 135 24 77 24 82 18 8 -9 -135 -49 -165 -54 -333
-57 -127 -3 -150 -2 -101 5 136 19 216 67 297 177 26 35 51 63 58 63 6 0 47
-21 90 -48z m-838 -3 c-14 -17 -26 -38 -26 -46 0 -9 -7 -25 -16 -34 -15 -17
-15 -21 -1 -42 14 -22 14 -27 -6 -66 l-21 -42 28 -55 c37 -71 92 -118 191
-164 132 -62 204 -75 405 -74 162 0 182 2 265 28 251 77 378 213 332 356 -10
30 -13 62 -8 95 l6 50 37 -51 c46 -63 58 -93 58 -150 0 -88 -52 -167 -153
-233 -315 -205 -921 -179 -1149 49 -119 119 -113 254 18 369 55 48 77 54 40
10z m588 -80 c-10 -12 -41 -33 -69 -47 -56 -29 -171 -40 -240 -24 l-40 9 70 7
c97 10 203 33 250 56 51 24 52 24 29 -1z m542 -75 c49 -194 -264 -368 -631
-351 -219 10 -424 87 -495 187 l-22 31 59 -27 c148 -66 267 -104 324 -104 15
0 43 -7 63 -15 32 -13 40 -14 71 -1 19 8 56 18 82 21 87 12 158 34 293 90 172
71 178 77 140 115 -21 21 -21 22 32 39 20 7 42 19 48 27 18 21 29 17 36 -12z
m-1006 -15 c111 -68 211 -90 407 -91 l133 0 0 -33 c0 -31 -4 -34 -96 -79 -53
-25 -103 -46 -112 -46 -10 0 -107 52 -217 116 -246 142 -247 143 -240 154 13
20 75 10 125 -21z m-64 -60 c46 -26 54 -35 54 -60 0 -16 -2 -29 -4 -29 -9 0
-127 59 -141 70 -11 9 -12 17 -4 31 14 26 33 24 95 -12z"/>
</g>
</svg>
